<?xml version="1.0" encoding="utf-8"?>
<!-- Generator: Adobe Illustrator 19.1.0, SVG Export Plug-In . SVG Version: 6.00 Build 0)  -->
<svg version="1.1" id="Layer_1" xmlns="http://www.w3.org/2000/svg" xmlns:xlink="http://www.w3.org/1999/xlink" x="0px" y="0px"
	 viewBox="-71 197 647.5 341" style="enable-background:new -71 197 647.5 341;" xml:space="preserve">
<style type="text/css">
	.st0{fill:#C7E9F4;stroke:#231F20;stroke-width:0.5;stroke-miterlimit:10;}
	.st1{fill:#FFFFFF;stroke:#231F20;stroke-width:0.5;stroke-miterlimit:10;}
	.st2{fill:#FBE2ED;stroke:#231F20;stroke-width:0.5;stroke-miterlimit:10;}
	.st3{opacity:0.56;fill:#FFFFFF;stroke:#231F20;stroke-width:0.5;stroke-miterlimit:10;enable-background:new    ;}
	.st4{fill:#231F20;}
	.st5{font-family:'TimesNewRomanPSMT';}
	.st6{font-size:12px;}
	.st7{fill:none;stroke:#231F20;stroke-width:0.25;stroke-miterlimit:10;}
	.st8{fill:#B1DCC7;stroke:#231F20;stroke-width:0.25;stroke-miterlimit:10;}
	.st9{fill:none;stroke:#221F1F;stroke-width:0.25;stroke-miterlimit:10;}
	.st10{font-family:'CourierNewPSMT';}
	.st11{fill:#221F1F;stroke:#221F1F;stroke-width:0.25;stroke-miterlimit:10;}
</style>
<rect x="108" y="369" class="st0" width="244" height="40"/>
<rect x="108" y="409" class="st1" width="244" height="40"/>
<rect x="108" y="449" class="st1" width="244" height="40"/>
<rect x="108" y="489" class="st1" width="244" height="40"/>
<rect x="108" y="209" class="st0" width="244" height="40"/>
<rect x="108" y="249" class="st0" width="244" height="40"/>
<rect x="108" y="289" class="st2" width="244" height="40"/>
<rect x="108" y="329" class="st0" width="244" height="40"/>
<rect x="92.1" y="289" class="st3" width="275.7" height="120"/>
<text transform="matrix(1 0 0 1 192.5058 313)" class="st4 st5 st6">Return Address</text>
<text transform="matrix(5.993197e-07 -1 1 0 80.1462 379.1572)" class="st4 st5 st6">Stack Frame</text>
<line class="st7" x1="352" y1="409" x2="404" y2="409"/>
<g>
	<rect x="403.1" y="402.5" class="st8" width="42.5" height="12.9"/>
	<line class="st9" x1="424.5" y1="401.2" x2="424.5" y2="402.5"/>
	<line class="st9" x1="427.5" y1="401.2" x2="427.5" y2="402.5"/>
	<line class="st9" x1="430.5" y1="401.2" x2="430.5" y2="402.5"/>
	<line class="st9" x1="433.5" y1="401.2" x2="433.5" y2="402.5"/>
	<line class="st9" x1="436.5" y1="401.2" x2="436.5" y2="402.5"/>
	<line class="st9" x1="439.5" y1="401.2" x2="439.5" y2="402.5"/>
	<line class="st9" x1="409.5" y1="401.2" x2="409.5" y2="402.5"/>
	<line class="st9" x1="412.5" y1="401.2" x2="412.5" y2="402.5"/>
	<line class="st9" x1="415.5" y1="401.2" x2="415.5" y2="402.5"/>
	<line class="st9" x1="418.5" y1="401.2" x2="418.5" y2="402.5"/>
	<line class="st9" x1="421.5" y1="401.2" x2="421.5" y2="402.5"/>
	<line class="st9" x1="424.5" y1="415.5" x2="424.5" y2="416.8"/>
	<line class="st9" x1="427.5" y1="415.5" x2="427.5" y2="416.8"/>
	<line class="st9" x1="430.5" y1="415.5" x2="430.5" y2="416.8"/>
	<line class="st9" x1="433.5" y1="415.5" x2="433.5" y2="416.8"/>
	<line class="st9" x1="436.5" y1="415.5" x2="436.5" y2="416.8"/>
	<line class="st9" x1="439.5" y1="415.5" x2="439.5" y2="416.8"/>
	<line class="st9" x1="409.5" y1="415.5" x2="409.5" y2="416.8"/>
	<line class="st9" x1="412.5" y1="415.5" x2="412.5" y2="416.8"/>
	<line class="st9" x1="415.5" y1="415.5" x2="415.5" y2="416.8"/>
	<line class="st9" x1="418.5" y1="415.5" x2="418.5" y2="416.8"/>
	<line class="st9" x1="421.5" y1="415.5" x2="421.5" y2="416.8"/>
	<line class="st9" x1="406.5" y1="401.2" x2="406.5" y2="402.5"/>
	<line class="st9" x1="442.5" y1="401.2" x2="442.5" y2="402.5"/>
	<line class="st9" x1="442.5" y1="415.5" x2="442.5" y2="416.8"/>
	<line class="st9" x1="406.5" y1="415.5" x2="406.5" y2="416.8"/>
	<text transform="matrix(1 0 0 1 413.6875 412.3145)" class="st4 st10 st6">ESP</text>
</g>
<polygon class="st11" points="352,409 358.5,411.6 358.5,406.4 "/>
<text transform="matrix(1 0 0 1 207.45 353)" class="st4 st5 st6">Old ECX</text>
<text transform="matrix(1 0 0 1 207.169 394)" class="st4 st5 st6">Old EDX</text>
</svg>
