<?xml version="1.0" encoding="utf-8"?>
<!-- Generator: Adobe Illustrator 19.1.0, SVG Export Plug-In . SVG Version: 6.00 Build 0)  -->
<svg version="1.1" id="Layer_1" xmlns="http://www.w3.org/2000/svg" xmlns:xlink="http://www.w3.org/1999/xlink" x="0px" y="0px"
	 viewBox="-71 109 647.5 554" style="enable-background:new -71 109 647.5 554;" xml:space="preserve">
<style type="text/css">
	.st0{fill:#E6E6E6;stroke:#221F1F;stroke-width:0.25;stroke-miterlimit:10;}
	.st1{fill:#FFFFFF;stroke:#221F1F;stroke-width:0.25;stroke-miterlimit:10;}
	.st2{fill:#F1F1F1;stroke:#221F1F;stroke-width:0.25;stroke-miterlimit:10;}
	.st3{enable-background:new    ;}
	.st4{fill:#221F1F;}
	.st5{fill:none;stroke:#221F1F;stroke-width:0.25;stroke-miterlimit:10;}
	.st6{fill:#221F1F;stroke:#221F1F;stroke-width:0.25;stroke-miterlimit:10;}
	.st7{fill:#FDF9D5;stroke:#221F1F;stroke-width:0.25;stroke-miterlimit:10;}
	.st8{fill:none;stroke:#BABCBE;stroke-width:0.25;stroke-miterlimit:10;}
	.st9{fill:#B1DCC7;}
	.st10{fill:#B1DCC7;stroke:#231F20;stroke-width:0.25;stroke-miterlimit:10;}
	.st11{fill:#FFF9BF;stroke:#231F20;stroke-width:0.5;stroke-miterlimit:10;}
	.st12{fill:#C7E9F4;stroke:#231F20;stroke-width:0.5;stroke-miterlimit:10;}
	.st13{fill:#FFFFFF;stroke:#231F20;stroke-width:0.5;stroke-miterlimit:10;}
	.st14{fill:#D8D6EB;stroke:#231F20;stroke-width:0.5;stroke-miterlimit:10;}
	.st15{fill:#FBE2ED;stroke:#231F20;stroke-width:0.5;stroke-miterlimit:10;}
	.st16{fill:#B5DDC1;stroke:#231F20;stroke-width:0.5;stroke-miterlimit:10;}
	.st17{fill:none;stroke:#231F20;stroke-width:0.25;stroke-miterlimit:10;}
	.st18{opacity:0.56;fill:#FFFFFF;stroke:#231F20;stroke-width:0.5;stroke-miterlimit:10;}
	.st19{fill:#231F20;}
	.st20{font-family:'TimesNewRomanPSMT';}
	.st21{font-size:12px;}
	.st22{font-family:'CourierNewPSMT';}
</style>
<rect x="339.5" y="-343" class="st0" width="160.3" height="179.3"/>
<rect x="339.5" y="-314.7" class="st1" width="160.3" height="102.3"/>
<rect x="-126.9" y="-400.5" class="st2" width="128.6" height="27"/>
<text transform="matrix(1 0 0 1 -119.3906 -383.9998)" class="st4 st22 st21">Interrupt Vector</text>
<circle class="st5" cx="19.6" cy="-344.7" r="13.7"/>
<rect x="18.8" y="-348.9" class="st6" width="1.5" height="8.4"/>
<rect x="18.8" y="-349" transform="matrix(0.5003 -0.8658 0.8658 0.5003 308.3342 -155.3349)" class="st6" width="1.5" height="8.4"/>
<polygon class="st6" points="8.2,-353.8 7.8,-357.8 4.2,-354.1 "/>
<line class="st5" x1="-5.5" y1="-367.5" x2="7.9" y2="-354.1"/>
<text transform="matrix(1 0 0 1 -58.9476 -318.6965)" class="st4 st22 st21">4</text>
<polygon class="st6" points="23.3,-347.4 24,-346 16.4,-341.9 15.6,-343.3 "/>
<polygon class="st6" points="8.1,-335.8 4,-335.5 7.7,-331.8 "/>
<line class="st5" x1="-5.6" y1="-322.2" x2="7.8" y2="-335.5"/>
<line class="st5" x1="-5.6" y1="-322.2" x2="-46.7" y2="-322.2"/>
<rect x="-125.9" y="-176.9" class="st7" width="138.2" height="27"/>
<text transform="matrix(1 0 0 1 -115.6689 -160.3989)" class="st4 st22 st21">IDT Base Address</text>
<ellipse class="st5" cx="69.1" cy="-275" rx="13.2" ry="13.7"/>
<rect x="68.4" y="-279.2" class="st6" width="1.5" height="8.4"/>
<rect x="65.1" y="-275.8" class="st6" width="8.1" height="1.5"/>
<polygon class="st6" points="69.1,-288.8 71.7,-295.3 66.5,-295.3 "/>
<line class="st5" x1="29.9" y1="-163.4" x2="29.9" y2="-274.1"/>
<line class="st5" x1="110.7" y1="-163.4" x2="13.8" y2="-163.4"/>
<rect x="109.5" y="-343" class="st5" width="160.3" height="179.3"/>
<polygon class="st6" points="108.2,-163.4 101.8,-166 101.8,-160.8 "/>
<line class="st5" x1="339.1" y1="-212.3" x2="286.1" y2="-212.3"/>
<line class="st5" x1="286.1" y1="-212.3" x2="286.1" y2="-285.8"/>
<line class="st5" x1="322.6" y1="-258.8" x2="269.8" y2="-258.8"/>
<polygon class="st6" points="339.5,-212.3 333.1,-214.9 333.1,-209.7 "/>
<line class="st5" x1="338.8" y1="-228.8" x2="322.4" y2="-228.8"/>
<polygon class="st6" points="339.3,-228.8 332.8,-231.4 332.8,-226.2 "/>
<line class="st5" x1="269.8" y1="-285.8" x2="286.1" y2="-285.8"/>
<line class="st5" x1="322.6" y1="-258.8" x2="322.6" y2="-228.8"/>
<rect x="339.5" y="-314.7" class="st5" width="160.3" height="102.3"/>
<rect x="339.5" y="-255.8" class="st5" width="160.3" height="27"/>
<text transform="matrix(1 0 0 1 180.8273 -283.4772)" class="st4 st22 st21">CS</text>
<text transform="matrix(1 0 0 1 166.4249 -255.4772)" class="st4 st22 st21">Offset</text>
<polygon class="st6" points="109.8,-245.3 103.3,-247.9 103.3,-242.7 "/>
<line class="st5" x1="109.5" y1="-299.3" x2="269.8" y2="-299.3"/>
<line class="st5" x1="109.5" y1="-245.3" x2="269.8" y2="-245.3"/>
<line class="st8" x1="109.5" y1="-272.3" x2="269.8" y2="-272.3"/>
<text transform="matrix(1 0 0 1 356.8185 -240.4772)" class="st4 st22 st21">Interrupt Handler</text>
<text transform="matrix(1 0 0 1 116.0167 -373.4772)" class="st4 st22 st21">Interrupt-Desctiptor</text>
<text transform="matrix(1 0 0 1 170.0167 -359.0771)" class="st4 st22 st21">Table</text>
<text transform="matrix(1 0 0 1 364.0197 -373.4772)" class="st4 st22 st21">Virtual Address</text>
<text transform="matrix(1 0 0 1 400.0197 -359.0771)" class="st4 st22 st21">Space</text>
<polygon class="st6" points="54.7,-274.1 48.3,-276.7 48.3,-271.5 "/>
<line class="st5" x1="29.9" y1="-274.1" x2="53.9" y2="-274.1"/>
<line class="st5" x1="69.1" y1="-344.7" x2="69.1" y2="-288.7"/>
<line class="st5" x1="69.1" y1="-261.3" x2="69.1" y2="-245.3"/>
<line class="st5" x1="69.1" y1="-245.3" x2="109.5" y2="-245.3"/>
<line class="st5" x1="-53.9" y1="-149.9" x2="-53.9" y2="-108.8"/>
<line class="st5" x1="69.1" y1="-344.7" x2="33.3" y2="-344.7"/>
<line class="st5" x1="-105.8" y1="-108.8" x2="-53.9" y2="-108.8"/>
<polygon class="st6" points="-53.9,-149.1 -56.5,-142.6 -51.3,-142.6 "/>
<g>
	<rect x="-118.2" y="-115.3" class="st7" width="42.5" height="12.9"/>
	<line class="st5" x1="-96.9" y1="-116.6" x2="-96.9" y2="-115.3"/>
	<line class="st5" x1="-93.9" y1="-116.6" x2="-93.9" y2="-115.3"/>
	<line class="st5" x1="-90.9" y1="-116.6" x2="-90.9" y2="-115.3"/>
	<line class="st5" x1="-87.9" y1="-116.6" x2="-87.9" y2="-115.3"/>
	<line class="st5" x1="-84.9" y1="-116.6" x2="-84.9" y2="-115.3"/>
	<line class="st5" x1="-81.9" y1="-116.6" x2="-81.9" y2="-115.3"/>
	<line class="st5" x1="-111.9" y1="-116.6" x2="-111.9" y2="-115.3"/>
	<line class="st5" x1="-108.9" y1="-116.6" x2="-108.9" y2="-115.3"/>
	<line class="st5" x1="-105.9" y1="-116.6" x2="-105.9" y2="-115.3"/>
	<line class="st5" x1="-102.9" y1="-116.6" x2="-102.9" y2="-115.3"/>
	<line class="st5" x1="-99.9" y1="-116.6" x2="-99.9" y2="-115.3"/>
	<line class="st5" x1="-96.9" y1="-102.4" x2="-96.9" y2="-101"/>
	<line class="st5" x1="-93.9" y1="-102.4" x2="-93.9" y2="-101"/>
	<line class="st5" x1="-90.9" y1="-102.4" x2="-90.9" y2="-101"/>
	<line class="st5" x1="-87.9" y1="-102.4" x2="-87.9" y2="-101"/>
	<line class="st5" x1="-84.9" y1="-102.4" x2="-84.9" y2="-101"/>
	<line class="st5" x1="-81.9" y1="-102.4" x2="-81.9" y2="-101"/>
	<line class="st5" x1="-111.9" y1="-102.4" x2="-111.9" y2="-101"/>
	<line class="st5" x1="-108.9" y1="-102.4" x2="-108.9" y2="-101"/>
	<line class="st5" x1="-105.9" y1="-102.4" x2="-105.9" y2="-101"/>
	<line class="st5" x1="-102.9" y1="-102.4" x2="-102.9" y2="-101"/>
	<line class="st5" x1="-99.9" y1="-102.4" x2="-99.9" y2="-101"/>
	<line class="st5" x1="-114.9" y1="-116.6" x2="-114.9" y2="-115.3"/>
	<line class="st5" x1="-78.9" y1="-116.6" x2="-78.9" y2="-115.3"/>
	<line class="st5" x1="-78.9" y1="-102.4" x2="-78.9" y2="-101"/>
	<line class="st5" x1="-114.9" y1="-102.4" x2="-114.9" y2="-101"/>
	<rect x="-118.2" y="-115.3" class="st9" width="27.4" height="12.9"/>
	<text transform="matrix(1 0 0 1 -111.2852 -105.5006)" class="st4 st22 st21">IDTR</text>
</g>
<line class="st5" x1="-62.5" y1="-367.5" x2="-62.6" y2="-373.5"/>
<line class="st5" x1="-62.5" y1="-367.5" x2="-5.5" y2="-367.5"/>
<rect x="1151.5" y="-343" class="st0" width="160.3" height="179.3"/>
<rect x="1151.5" y="-314.7" class="st1" width="160.3" height="102.3"/>
<rect x="685.1" y="-400.5" class="st2" width="128.6" height="27"/>
<text transform="matrix(1 0 0 1 692.6094 -383.9998)" class="st4 st22 st21">Interrupt Vector</text>
<circle class="st5" cx="831.6" cy="-344.7" r="13.7"/>
<rect x="830.8" y="-348.9" class="st6" width="1.5" height="8.4"/>
<rect x="830.8" y="-349" transform="matrix(0.5003 -0.8658 0.8658 0.5003 714.109 547.7137)" class="st6" width="1.5" height="8.4"/>
<polygon class="st6" points="820.2,-353.8 819.8,-357.8 816.2,-354.1 "/>
<line class="st5" x1="806.5" y1="-367.5" x2="819.9" y2="-354.1"/>
<text transform="matrix(1 0 0 1 753.0524 -318.6965)" class="st4 st22 st21">8</text>
<polygon class="st6" points="835.3,-347.4 836,-346 828.4,-341.9 827.6,-343.3 "/>
<polygon class="st6" points="820.1,-335.8 816,-335.5 819.7,-331.8 "/>
<line class="st5" x1="806.4" y1="-322.2" x2="819.8" y2="-335.5"/>
<line class="st5" x1="806.4" y1="-322.2" x2="765.3" y2="-322.2"/>
<rect x="686.1" y="-176.9" class="st10" width="138.2" height="27"/>
<text transform="matrix(1 0 0 1 696.3311 -160.3989)" class="st4 st22 st21">IDT Base Address</text>
<ellipse class="st5" cx="881.1" cy="-275" rx="13.2" ry="13.7"/>
<rect x="880.4" y="-279.2" class="st6" width="1.5" height="8.4"/>
<rect x="877.1" y="-275.8" class="st6" width="8.1" height="1.5"/>
<polygon class="st6" points="881.1,-288.8 883.7,-295.3 878.5,-295.3 "/>
<line class="st5" x1="841.9" y1="-163.4" x2="841.9" y2="-274.1"/>
<line class="st5" x1="922.7" y1="-163.4" x2="825.8" y2="-163.4"/>
<rect x="921.5" y="-343" class="st5" width="160.3" height="179.3"/>
<polygon class="st6" points="920.2,-163.4 913.8,-166 913.8,-160.8 "/>
<line class="st5" x1="1151.1" y1="-212.3" x2="1098.1" y2="-212.3"/>
<line class="st5" x1="1098.1" y1="-212.3" x2="1098.1" y2="-285.8"/>
<line class="st5" x1="1134.6" y1="-258.8" x2="1081.8" y2="-258.8"/>
<polygon class="st6" points="1151.5,-212.3 1145.1,-214.9 1145.1,-209.7 "/>
<line class="st5" x1="1150.8" y1="-228.8" x2="1134.4" y2="-228.8"/>
<polygon class="st6" points="1151.3,-228.8 1144.8,-231.4 1144.8,-226.2 "/>
<line class="st5" x1="1081.8" y1="-285.8" x2="1098.1" y2="-285.8"/>
<line class="st5" x1="1134.6" y1="-258.8" x2="1134.6" y2="-228.8"/>
<rect x="1151.5" y="-314.7" class="st5" width="160.3" height="102.3"/>
<rect x="1151.5" y="-255.8" class="st5" width="160.3" height="27"/>
<polygon class="st6" points="921.8,-245.3 915.3,-247.9 915.3,-242.7 "/>
<line class="st5" x1="921.5" y1="-299.3" x2="1081.8" y2="-299.3"/>
<line class="st5" x1="921.5" y1="-245.3" x2="1081.8" y2="-245.3"/>
<line class="st8" x1="921.5" y1="-272.3" x2="1081.8" y2="-272.3"/>
<text transform="matrix(1 0 0 1 1168.8185 -240.4772)" class="st4 st22 st21">Interrupt Handler</text>
<text transform="matrix(1 0 0 1 928.0167 -373.4772)" class="st4 st22 st21">Interrupt-Desctiptor</text>
<text transform="matrix(1 0 0 1 982.0167 -359.0771)" class="st4 st22 st21">Table</text>
<text transform="matrix(1 0 0 1 1176.0197 -373.4772)" class="st4 st22 st21">Virtual Address</text>
<text transform="matrix(1 0 0 1 1212.0197 -359.0771)" class="st4 st22 st21">Space</text>
<polygon class="st6" points="866.7,-274.1 860.3,-276.7 860.3,-271.5 "/>
<line class="st5" x1="841.9" y1="-274.1" x2="865.9" y2="-274.1"/>
<line class="st5" x1="881.1" y1="-344.7" x2="881.1" y2="-288.7"/>
<line class="st5" x1="881.1" y1="-261.3" x2="881.1" y2="-245.3"/>
<line class="st5" x1="881.1" y1="-245.3" x2="921.5" y2="-245.3"/>
<line class="st5" x1="758.1" y1="-149.9" x2="758.1" y2="-108.8"/>
<line class="st5" x1="881.1" y1="-344.7" x2="845.3" y2="-344.7"/>
<line class="st5" x1="706.2" y1="-108.8" x2="758.1" y2="-108.8"/>
<polygon class="st6" points="758.1,-149.1 755.5,-142.6 760.7,-142.6 "/>
<g>
	<rect x="693.8" y="-115.3" class="st7" width="42.5" height="12.9"/>
	<line class="st5" x1="715.1" y1="-116.6" x2="715.1" y2="-115.3"/>
	<line class="st5" x1="718.1" y1="-116.6" x2="718.1" y2="-115.3"/>
	<line class="st5" x1="721.1" y1="-116.6" x2="721.1" y2="-115.3"/>
	<line class="st5" x1="724.1" y1="-116.6" x2="724.1" y2="-115.3"/>
	<line class="st5" x1="727.1" y1="-116.6" x2="727.1" y2="-115.3"/>
	<line class="st5" x1="730.1" y1="-116.6" x2="730.1" y2="-115.3"/>
	<line class="st5" x1="700.1" y1="-116.6" x2="700.1" y2="-115.3"/>
	<line class="st5" x1="703.1" y1="-116.6" x2="703.1" y2="-115.3"/>
	<line class="st5" x1="706.1" y1="-116.6" x2="706.1" y2="-115.3"/>
	<line class="st5" x1="709.1" y1="-116.6" x2="709.1" y2="-115.3"/>
	<line class="st5" x1="712.1" y1="-116.6" x2="712.1" y2="-115.3"/>
	<line class="st5" x1="715.1" y1="-102.4" x2="715.1" y2="-101"/>
	<line class="st5" x1="718.1" y1="-102.4" x2="718.1" y2="-101"/>
	<line class="st5" x1="721.1" y1="-102.4" x2="721.1" y2="-101"/>
	<line class="st5" x1="724.1" y1="-102.4" x2="724.1" y2="-101"/>
	<line class="st5" x1="727.1" y1="-102.4" x2="727.1" y2="-101"/>
	<line class="st5" x1="730.1" y1="-102.4" x2="730.1" y2="-101"/>
	<line class="st5" x1="700.1" y1="-102.4" x2="700.1" y2="-101"/>
	<line class="st5" x1="703.1" y1="-102.4" x2="703.1" y2="-101"/>
	<line class="st5" x1="706.1" y1="-102.4" x2="706.1" y2="-101"/>
	<line class="st5" x1="709.1" y1="-102.4" x2="709.1" y2="-101"/>
	<line class="st5" x1="712.1" y1="-102.4" x2="712.1" y2="-101"/>
	<line class="st5" x1="697.1" y1="-116.6" x2="697.1" y2="-115.3"/>
	<line class="st5" x1="733.1" y1="-116.6" x2="733.1" y2="-115.3"/>
	<line class="st5" x1="733.1" y1="-102.4" x2="733.1" y2="-101"/>
	<line class="st5" x1="697.1" y1="-102.4" x2="697.1" y2="-101"/>
	<rect x="693.8" y="-115.3" class="st9" width="27.4" height="12.9"/>
	<text transform="matrix(1 0 0 1 700.7148 -105.5006)" class="st4 st22 st21">IDTR</text>
</g>
<line class="st5" x1="749.5" y1="-367.5" x2="749.4" y2="-373.5"/>
<line class="st5" x1="749.5" y1="-367.5" x2="806.5" y2="-367.5"/>
<rect x="109" y="449" class="st11" width="244" height="40"/>
<rect x="109" y="489" class="st11" width="244" height="40"/>
<rect x="109" y="529" class="st12" width="244" height="40"/>
<rect x="109" y="569" class="st13" width="244" height="40"/>
<rect x="109" y="129" class="st10" width="244" height="40"/>
<rect x="109" y="169" class="st11" width="244" height="40"/>
<rect x="109" y="209" class="st11" width="244" height="40"/>
<rect x="109" y="249" class="st12" width="244" height="40"/>
<rect x="109" y="289" class="st14" width="244" height="40"/>
<rect x="109" y="329" class="st14" width="244" height="40"/>
<rect x="109" y="369" class="st15" width="244" height="40"/>
<rect x="109" y="409" class="st16" width="244" height="40"/>
<rect x="109" y="609" class="st13" width="244" height="40"/>
<line class="st17" x1="353" y1="449" x2="405" y2="449"/>
<rect x="93.2" y="289" class="st18" width="275.7" height="280"/>
<text transform="matrix(1 0 0 1 201.3484 315)" class="st19 st20 st21">Parameter 2</text>
<text transform="matrix(1 0 0 1 201.3484 354)" class="st19 st20 st21">Parameter 1</text>
<text transform="matrix(1 0 0 1 192.6736 393)" class="st19 st20 st21">Return Address</text>
<text transform="matrix(1 0 0 1 208.6638 433)" class="st19 st20 st21">Old EBP</text>
<text transform="matrix(1 0 0 1 189.8552 474)" class="st19 st20 st21">Local Variable 1</text>
<text transform="matrix(1 0 0 1 189.8552 513)" class="st19 st20 st21">Local Variable 2</text>
<text transform="matrix(1 0 0 1 194.0095 553)" class="st19 st20 st21">Saved Register</text>
<text transform="matrix(5.993197e-07 -1 1 0 81.146 459.1576)" class="st19 st20 st21">Stack Frame</text>
<g>
	<rect x="404.1" y="442.5" class="st10" width="42.5" height="12.9"/>
	<line class="st5" x1="425.5" y1="441.2" x2="425.5" y2="442.5"/>
	<line class="st5" x1="428.5" y1="441.2" x2="428.5" y2="442.5"/>
	<line class="st5" x1="431.5" y1="441.2" x2="431.5" y2="442.5"/>
	<line class="st5" x1="434.5" y1="441.2" x2="434.5" y2="442.5"/>
	<line class="st5" x1="437.5" y1="441.2" x2="437.5" y2="442.5"/>
	<line class="st5" x1="440.5" y1="441.2" x2="440.5" y2="442.5"/>
	<line class="st5" x1="410.5" y1="441.2" x2="410.5" y2="442.5"/>
	<line class="st5" x1="413.5" y1="441.2" x2="413.5" y2="442.5"/>
	<line class="st5" x1="416.5" y1="441.2" x2="416.5" y2="442.5"/>
	<line class="st5" x1="419.5" y1="441.2" x2="419.5" y2="442.5"/>
	<line class="st5" x1="422.5" y1="441.2" x2="422.5" y2="442.5"/>
	<line class="st5" x1="425.5" y1="455.5" x2="425.5" y2="456.8"/>
	<line class="st5" x1="428.5" y1="455.5" x2="428.5" y2="456.8"/>
	<line class="st5" x1="431.5" y1="455.5" x2="431.5" y2="456.8"/>
	<line class="st5" x1="434.5" y1="455.5" x2="434.5" y2="456.8"/>
	<line class="st5" x1="437.5" y1="455.5" x2="437.5" y2="456.8"/>
	<line class="st5" x1="440.5" y1="455.5" x2="440.5" y2="456.8"/>
	<line class="st5" x1="410.5" y1="455.5" x2="410.5" y2="456.8"/>
	<line class="st5" x1="413.5" y1="455.5" x2="413.5" y2="456.8"/>
	<line class="st5" x1="416.5" y1="455.5" x2="416.5" y2="456.8"/>
	<line class="st5" x1="419.5" y1="455.5" x2="419.5" y2="456.8"/>
	<line class="st5" x1="422.5" y1="455.5" x2="422.5" y2="456.8"/>
	<line class="st5" x1="407.5" y1="441.2" x2="407.5" y2="442.5"/>
	<line class="st5" x1="443.5" y1="441.2" x2="443.5" y2="442.5"/>
	<line class="st5" x1="443.5" y1="455.5" x2="443.5" y2="456.8"/>
	<line class="st5" x1="407.5" y1="455.5" x2="407.5" y2="456.8"/>
	<text transform="matrix(1 0 0 1 414.6873 452.3145)" class="st19 st22 st21">EBP</text>
</g>
<polygon class="st6" points="353,449 359.5,451.6 359.5,446.4 "/>
<line class="st17" x1="353" y1="569" x2="405" y2="569"/>
<g>
	<rect x="404.1" y="562.5" class="st10" width="42.5" height="12.9"/>
	<line class="st5" x1="425.5" y1="561.2" x2="425.5" y2="562.5"/>
	<line class="st5" x1="428.5" y1="561.2" x2="428.5" y2="562.5"/>
	<line class="st5" x1="431.5" y1="561.2" x2="431.5" y2="562.5"/>
	<line class="st5" x1="434.5" y1="561.2" x2="434.5" y2="562.5"/>
	<line class="st5" x1="437.5" y1="561.2" x2="437.5" y2="562.5"/>
	<line class="st5" x1="440.5" y1="561.2" x2="440.5" y2="562.5"/>
	<line class="st5" x1="410.5" y1="561.2" x2="410.5" y2="562.5"/>
	<line class="st5" x1="413.5" y1="561.2" x2="413.5" y2="562.5"/>
	<line class="st5" x1="416.5" y1="561.2" x2="416.5" y2="562.5"/>
	<line class="st5" x1="419.5" y1="561.2" x2="419.5" y2="562.5"/>
	<line class="st5" x1="422.5" y1="561.2" x2="422.5" y2="562.5"/>
	<line class="st5" x1="425.5" y1="575.5" x2="425.5" y2="576.8"/>
	<line class="st5" x1="428.5" y1="575.5" x2="428.5" y2="576.8"/>
	<line class="st5" x1="431.5" y1="575.5" x2="431.5" y2="576.8"/>
	<line class="st5" x1="434.5" y1="575.5" x2="434.5" y2="576.8"/>
	<line class="st5" x1="437.5" y1="575.5" x2="437.5" y2="576.8"/>
	<line class="st5" x1="440.5" y1="575.5" x2="440.5" y2="576.8"/>
	<line class="st5" x1="410.5" y1="575.5" x2="410.5" y2="576.8"/>
	<line class="st5" x1="413.5" y1="575.5" x2="413.5" y2="576.8"/>
	<line class="st5" x1="416.5" y1="575.5" x2="416.5" y2="576.8"/>
	<line class="st5" x1="419.5" y1="575.5" x2="419.5" y2="576.8"/>
	<line class="st5" x1="422.5" y1="575.5" x2="422.5" y2="576.8"/>
	<line class="st5" x1="407.5" y1="561.2" x2="407.5" y2="562.5"/>
	<line class="st5" x1="443.5" y1="561.2" x2="443.5" y2="562.5"/>
	<line class="st5" x1="443.5" y1="575.5" x2="443.5" y2="576.8"/>
	<line class="st5" x1="407.5" y1="575.5" x2="407.5" y2="576.8"/>
	<text transform="matrix(1 0 0 1 414.6873 572.3145)" class="st19 st22 st21">ESP</text>
</g>
<polygon class="st6" points="353,569 359.5,571.6 359.5,566.4 "/>
</svg>
